<?xml version="1.0" standalone="no"?>
<!DOCTYPE svg PUBLIC "-//W3C//DTD SVG 20010904//EN"
 "http://www.w3.org/TR/2001/REC-SVG-20010904/DTD/svg10.dtd">
<svg version="1.0" xmlns="http://www.w3.org/2000/svg"
 width="692.000000pt" height="763.000000pt" viewBox="0 0 692.000000 763.000000"
 preserveAspectRatio="xMidYMid meet">
<metadata>
Created by potrace 1.16, written by Peter Selinger 2001-2019
</metadata>
<g transform="translate(0.000000,763.000000) scale(0.100000,-0.100000)"
fill="#000000" stroke="none">
<path d="M1833 6696 l-1612 -931 0 -1880 0 -1880 1612 -930 c887 -511 1621
-930 1632 -930 18 1 3204 1832 3233 1859 9 9 12 207 10 948 l-3 936 -1610
-930 c-885 -512 -1617 -932 -1626 -935 -8 -2 -377 205 -820 460 l-804 465 -3
934 -2 934 1617 933 c890 513 1622 937 1626 940 9 9 -1603 941 -1624 940 -8
-1 -739 -420 -1626 -933z"/>
</g>
</svg>
